# xmcd
#
# Track frame offsets:
#	150
#	24924
#	44660
#	68031
#	86182
#	100878
#	121744
#	144349
#	157338
#	170071
#	188293
#	215155
#	226939
#	240238
#
# Disc length: 3360 seconds
# Revision: 0
# Processed by: cddbd v1.5.2PL0 Copyright (c) Steve Scherf et al.
# Submitted via: dBpowerAMP V12.0
#
DISCID=ba0d1e0e
DTITLE=Dan Copeland - Put Your Lips Against Mine
DYEAR=2009
DGENRE=Country
TTITLE0=Agate Bay
TTITLE1=Why Do You
TTITLE2=Ensonic
TTITLE3=Lonesome Whistle
TTITLE4=Wanderng Jew Blues
TTITLE5=Put Your Lips Against Mine
TTITLE6=Without Remorse
TTITLE7=Down the Line
TTITLE8=Jueber
TTITLE9=Baby Baby
TTITLE10=Lorena
TTITLE11=Estralita
TTITLE12=Can't Blame Her None
TTITLE13=Yellowstone
EXTD=
EXTT0=
EXTT1=
EXTT2=
EXTT3=
EXTT4=
EXTT5=
EXTT6=
EXTT7=
EXTT8=
EXTT9=
EXTT10=
EXTT11=
EXTT12=
EXTT13=
PLAYORDER=
